<svg xmlns="http://www.w3.org/2000/svg" width="2560" height="1440" viewBox="0 0 2560 1440">
<defs>
  <marker id="arrow" markerWidth="12" markerHeight="12" refX="10" refY="6" orient="auto"><path d="M0,0 L12,6 L0,12 Z" fill="#2586C4"/></marker>
  <filter id="shadow" x="-20%" y="-20%" width="140%" height="140%"><feDropShadow dx="0" dy="4" stdDeviation="5" flood-color="#0B4660" flood-opacity="0.10"/></filter>
</defs>
<rect width="2560" height="1440" fill="#FFFFFF"/>

<rect x="18" y="18" width="2524" height="1404" rx="8" fill="none" stroke="#172A3A" stroke-width="4"/>
<rect x="22" y="22" width="2516" height="126" fill="#B9E1F3" opacity="0.96"/>
<text x="1280" y="92" font-family="Arial" font-size="54" font-weight="800" fill="#071827" text-anchor="middle">TECHNICAL ARCHITECTURE</text><text x="1280" y="129" font-family="Arial" font-size="22" font-weight="600" fill="#28536B" text-anchor="middle">nextATT&amp;CKs | Live analysis, explainable intelligence, one deployable system</text><circle cx="2040" cy="91" r="9" fill="#2586C4"/><text x="2058" y="98" font-family="Arial" font-size="18" font-weight="600" fill="#38556A" text-anchor="start">live request</text><circle cx="2210" cy="91" r="9" fill="#D88916"/><text x="2228" y="98" font-family="Arial" font-size="18" font-weight="600" fill="#38556A" text-anchor="start">persisted state</text><line x1="2390" y1="91" x2="2430" y2="91" stroke="#66788A" stroke-width="4" stroke-dasharray="10 8"/><text x="2440" y="98" font-family="Arial" font-size="18" font-weight="600" fill="#38556A" text-anchor="start">offline</text><rect x="54" y="182" width="314" height="1000" rx="24" fill="#F4FBFE" stroke="#45B8C8" stroke-width="3"/><rect x="396" y="182" width="1618" height="1000" rx="24" fill="#F9FCFE" stroke="#2586C4" stroke-width="3"/><rect x="2042" y="182" width="464" height="1000" rx="24" fill="#F4FBFE" stroke="#45B8C8" stroke-width="3"/><text x="211" y="224" font-family="Arial" font-size="24" font-weight="800" fill="#147D94" text-anchor="middle">INPUTS</text><text x="1205" y="224" font-family="Arial" font-size="24" font-weight="800" fill="#155A86" text-anchor="middle">SINGLE CONTAINER RUNTIME</text><text x="2274" y="224" font-family="Arial" font-size="24" font-weight="800" fill="#147D94" text-anchor="middle">SOC OUTCOMES</text><rect x="78" y="250" width="266" height="164" rx="16" fill="#FFFFFF" stroke="#2586C4" stroke-width="2.5"/><rect x="78" y="250" width="266" height="10" rx="5" fill="#2586C4" stroke="none"/><text x="98" y="292" font-family="Arial" font-size="22" font-weight="700" fill="#102A43" text-anchor="start">Analyst and browser</text><text x="98" y="322" font-family="Arial" font-size="18" font-weight="400" fill="#52677A" text-anchor="start"><tspan x="98" dy="0">HTTPS session</tspan><tspan x="98" dy="21.96">scenario selection</tspan><tspan x="98" dy="21.96">CSV upload</tspan><tspan x="98" dy="21.96">live event scoring</tspan></text><rect x="78" y="438" width="266" height="184" rx="16" fill="#FFFFFF" stroke="#0E9BBF" stroke-width="2.5"/><rect x="78" y="438" width="266" height="10" rx="5" fill="#0E9BBF" stroke="none"/><text x="98" y="480" font-family="Arial" font-size="22" font-weight="700" fill="#102A43" text-anchor="start">Telemetry</text><text x="98" y="510" font-family="Arial" font-size="18" font-weight="400" fill="#52677A" text-anchor="start"><tspan x="98" dy="0">LANL auth events</tspan><tspan x="98" dy="21.96">CICIDS network flows</tspan><tspan x="98" dy="21.96">UNSW network records</tspan><tspan x="98" dy="21.96">12 field common schema</tspan></text><rect x="78" y="646" width="266" height="180" rx="16" fill="#FFFFFF" stroke="#7657D5" stroke-width="2.5"/><rect x="78" y="646" width="266" height="10" rx="5" fill="#7657D5" stroke="none"/><text x="98" y="688" font-family="Arial" font-size="22" font-weight="700" fill="#102A43" text-anchor="start">Threat intelligence</text><text x="98" y="718" font-family="Arial" font-size="18" font-weight="400" fill="#52677A" text-anchor="start"><tspan x="98" dy="0">free CTI feeds</tspan><tspan x="98" dy="21.96">India first relevance</tspan><tspan x="98" dy="21.96">MITRE ATT&amp;CK STIX</tspan><tspan x="98" dy="21.96">CERT-In sequences</tspan></text><rect x="78" y="850" width="266" height="274" rx="16" fill="#FFFFFF" stroke="#E0712F" stroke-width="2.5"/><rect x="78" y="850" width="266" height="10" rx="5" fill="#E0712F" stroke="none"/><text x="98" y="892" font-family="Arial" font-size="22" font-weight="700" fill="#102A43" text-anchor="start">Trust boundary</text><text x="98" y="922" font-family="Arial" font-size="18" font-weight="400" fill="#52677A" text-anchor="start"><tspan x="98" dy="0">schema validation</tspan><tspan x="98" dy="21.96">column alias resolution</tspan><tspan x="98" dy="21.96">50K row design cap</tspan><tspan x="98" dy="21.96">critical asset input</tspan><tspan x="98" dy="21.96">account scoped analysis</tspan><tspan x="98" dy="21.96">honest live or sample label</tspan></text><rect x="422" y="244" width="154" height="54" rx="27" fill="#2586C4"/><text x="444" y="279" font-family="Arial" font-size="22" font-weight="700" fill="#FFFFFF" text-anchor="start">01</text><text x="594" y="279" font-family="Arial" font-size="19" font-weight="600" fill="#52677A" text-anchor="start">EXPERIENCE PLANE</text><rect x="422" y="308" width="1566" height="176" rx="20" fill="#EDF6FF" stroke="#79B5EE" stroke-width="2.5"/><rect x="446" y="330" width="350" height="130" rx="16" fill="#FFFFFF" stroke="#2586C4" stroke-width="2.5"/><rect x="446" y="330" width="350" height="10" rx="5" fill="#2586C4" stroke="none"/><text x="466" y="372" font-family="Arial" font-size="21" font-weight="700" fill="#102A43" text-anchor="start">React 19 and Vite 8</text><text x="466" y="402" font-family="Arial" font-size="18" font-weight="400" fill="#52677A" text-anchor="start"><tspan x="466" dy="0">react-router 7</tspan><tspan x="466" dy="21.96">lazy split SPA</tspan></text><rect x="818" y="330" width="360" height="130" rx="16" fill="#FFFFFF" stroke="#2586C4" stroke-width="2.5"/><rect x="818" y="330" width="360" height="10" rx="5" fill="#2586C4" stroke="none"/><text x="838" y="372" font-family="Arial" font-size="21" font-weight="700" fill="#102A43" text-anchor="start">AnalysisProvider</text><text x="838" y="402" font-family="Arial" font-size="18" font-weight="400" fill="#52677A" text-anchor="start"><tspan x="838" dy="0">live bundle overrides sample</tspan><tspan x="838" dy="21.96">useScreenData state flow</tspan></text><rect x="1200" y="330" width="366" height="130" rx="16" fill="#FFFFFF" stroke="#2586C4" stroke-width="2.5"/><rect x="1200" y="330" width="366" height="10" rx="5" fill="#2586C4" stroke="none"/><text x="1220" y="372" font-family="Arial" font-size="21" font-weight="700" fill="#102A43" text-anchor="start">API client</text><text x="1220" y="402" font-family="Arial" font-size="18" font-weight="400" fill="#52677A" text-anchor="start"><tspan x="1220" dy="0">same origin /api</tspan><tspan x="1220" dy="21.96">live to cached fallback</tspan></text><rect x="1588" y="330" width="376" height="130" rx="16" fill="#FFFFFF" stroke="#2586C4" stroke-width="2.5"/><rect x="1588" y="330" width="376" height="10" rx="5" fill="#2586C4" stroke="none"/><text x="1608" y="372" font-family="Arial" font-size="21" font-weight="700" fill="#102A43" text-anchor="start">SOC visualization</text><text x="1608" y="402" font-family="Arial" font-size="18" font-weight="400" fill="#52677A" text-anchor="start"><tspan x="1608" dy="0">Recharts and force graph</tspan><tspan x="1608" dy="21.96">LIVE or SAMPLE status</tspan></text><rect x="422" y="510" width="154" height="54" rx="27" fill="#0E9BBF"/><text x="444" y="545" font-family="Arial" font-size="22" font-weight="700" fill="#FFFFFF" text-anchor="start">02</text><text x="594" y="545" font-family="Arial" font-size="19" font-weight="600" fill="#52677A" text-anchor="start">FASTAPI SERVICE PLANE</text><rect x="422" y="574" width="1566" height="188" rx="20" fill="#EDFBFE" stroke="#53C4D9" stroke-width="2.5"/><rect x="446" y="596" width="350" height="142" rx="16" fill="#FFFFFF" stroke="#0E9BBF" stroke-width="2.5"/><rect x="446" y="596" width="350" height="10" rx="5" fill="#0E9BBF" stroke="none"/><text x="466" y="638" font-family="Arial" font-size="21" font-weight="700" fill="#102A43" text-anchor="start">Live POST</text><text x="466" y="668" font-family="Arial" font-size="17" font-weight="400" fill="#52677A" text-anchor="start"><tspan x="466" dy="0">/analyze</tspan><tspan x="466" dy="20.74">/analyze/upload</tspan><tspan x="466" dy="20.74">/score-event</tspan><tspan x="466" dy="20.74">/predict-next</tspan></text><rect x="818" y="596" width="360" height="142" rx="16" fill="#FFFFFF" stroke="#0E9BBF" stroke-width="2.5"/><rect x="818" y="596" width="360" height="10" rx="5" fill="#0E9BBF" stroke="none"/><text x="838" y="638" font-family="Arial" font-size="21" font-weight="700" fill="#102A43" text-anchor="start">Streaming SSE</text><text x="838" y="668" font-family="Arial" font-size="17" font-weight="400" fill="#52677A" text-anchor="start"><tspan x="838" dy="0">/analyze/stream</tspan><tspan x="838" dy="20.74">paced event replay</tspan><tspan x="838" dy="20.74">final analysis bundle</tspan></text><rect x="1200" y="596" width="366" height="142" rx="16" fill="#FFFFFF" stroke="#0E9BBF" stroke-width="2.5"/><rect x="1200" y="596" width="366" height="10" rx="5" fill="#0E9BBF" stroke="none"/><text x="1220" y="638" font-family="Arial" font-size="21" font-weight="700" fill="#102A43" text-anchor="start">Cached and CTI GET</text><text x="1220" y="668" font-family="Arial" font-size="17" font-weight="400" fill="#52677A" text-anchor="start"><tspan x="1220" dy="0">overview, incident, graph</tspan><tspan x="1220" dy="20.74">report, metrics, attackers</tspan><tspan x="1220" dy="20.74">threat-intel, methodology</tspan></text><rect x="1588" y="596" width="376" height="142" rx="16" fill="#FFFFFF" stroke="#0E9BBF" stroke-width="2.5"/><rect x="1588" y="596" width="376" height="10" rx="5" fill="#0E9BBF" stroke="none"/><text x="1608" y="638" font-family="Arial" font-size="21" font-weight="700" fill="#102A43" text-anchor="start">Runtime serving</text><text x="1608" y="668" font-family="Arial" font-size="17" font-weight="400" fill="#52677A" text-anchor="start"><tspan x="1608" dy="0">uvicorn on port 8000</tspan><tspan x="1608" dy="20.74">built SPA from FastAPI</tspan><tspan x="1608" dy="20.74">health check and same origin</tspan></text><rect x="422" y="788" width="154" height="54" rx="27" fill="#20A657"/><text x="444" y="823" font-family="Arial" font-size="22" font-weight="700" fill="#FFFFFF" text-anchor="start">03</text><text x="594" y="823" font-family="Arial" font-size="19" font-weight="600" fill="#52677A" text-anchor="start">LIVE ANALYSIS SPINE | analyze_events()</text><rect x="422" y="852" width="1566" height="190" rx="20" fill="#F0FCF4" stroke="#58C97E" stroke-width="2.5"/><rect x="444" y="882" width="170" height="132" rx="14" fill="#FFFFFF" stroke="#56BF78" stroke-width="2"/><circle cx="472" cy="912" r="19" fill="#20A657"/><text x="472" y="920" font-family="Arial" font-size="18" font-weight="800" fill="#FFFFFF" text-anchor="middle">1</text><text x="499" y="920" font-family="Arial" font-size="20" font-weight="700" fill="#123B25" text-anchor="start">Normalize</text><text x="529" y="969" font-family="Arial" font-size="16" font-weight="500" fill="#557163" text-anchor="middle">schema + aliases</text><line x1="615" y1="948" x2="632" y2="948" stroke="#20A657" stroke-width="3" marker-end="url(#arrow)"/><rect x="635" y="882" width="170" height="132" rx="14" fill="#FFFFFF" stroke="#56BF78" stroke-width="2"/><circle cx="663" cy="912" r="19" fill="#20A657"/><text x="663" y="920" font-family="Arial" font-size="18" font-weight="800" fill="#FFFFFF" text-anchor="middle">2</text><text x="690" y="920" font-family="Arial" font-size="20" font-weight="700" fill="#123B25" text-anchor="start">Score</text><text x="720" y="969" font-family="Arial" font-size="16" font-weight="500" fill="#557163" text-anchor="middle">0 to 100 anomaly</text><line x1="806" y1="948" x2="823" y2="948" stroke="#20A657" stroke-width="3" marker-end="url(#arrow)"/><rect x="826" y="882" width="170" height="132" rx="14" fill="#FFFFFF" stroke="#56BF78" stroke-width="2"/><circle cx="854" cy="912" r="19" fill="#20A657"/><text x="854" y="920" font-family="Arial" font-size="18" font-weight="800" fill="#FFFFFF" text-anchor="middle">3</text><text x="881" y="920" font-family="Arial" font-size="20" font-weight="700" fill="#123B25" text-anchor="start">Correlate</text><text x="911" y="969" font-family="Arial" font-size="16" font-weight="500" fill="#557163" text-anchor="middle">alerts to incident</text><line x1="997" y1="948" x2="1014" y2="948" stroke="#20A657" stroke-width="3" marker-end="url(#arrow)"/><rect x="1017" y="882" width="170" height="132" rx="14" fill="#FFFFFF" stroke="#56BF78" stroke-width="2"/><circle cx="1045" cy="912" r="19" fill="#20A657"/><text x="1045" y="920" font-family="Arial" font-size="18" font-weight="800" fill="#FFFFFF" text-anchor="middle">4</text><text x="1072" y="920" font-family="Arial" font-size="20" font-weight="700" fill="#123B25" text-anchor="start">ATT&amp;CK</text><text x="1102" y="969" font-family="Arial" font-size="16" font-weight="500" fill="#557163" text-anchor="middle">verified technique IDs</text><line x1="1188" y1="948" x2="1205" y2="948" stroke="#20A657" stroke-width="3" marker-end="url(#arrow)"/><rect x="1208" y="882" width="170" height="132" rx="14" fill="#FFFFFF" stroke="#56BF78" stroke-width="2"/><circle cx="1236" cy="912" r="19" fill="#20A657"/><text x="1236" y="920" font-family="Arial" font-size="18" font-weight="800" fill="#FFFFFF" text-anchor="middle">5</text><text x="1263" y="920" font-family="Arial" font-size="20" font-weight="700" fill="#123B25" text-anchor="start">Graph</text><text x="1293" y="969" font-family="Arial" font-size="16" font-weight="500" fill="#557163" text-anchor="middle">paths + blast radius</text><line x1="1379" y1="948" x2="1396" y2="948" stroke="#20A657" stroke-width="3" marker-end="url(#arrow)"/><rect x="1399" y="882" width="170" height="132" rx="14" fill="#FFFFFF" stroke="#56BF78" stroke-width="2"/><circle cx="1427" cy="912" r="19" fill="#20A657"/><text x="1427" y="920" font-family="Arial" font-size="18" font-weight="800" fill="#FFFFFF" text-anchor="middle">6</text><text x="1454" y="920" font-family="Arial" font-size="20" font-weight="700" fill="#123B25" text-anchor="start">SOAR</text><text x="1484" y="969" font-family="Arial" font-size="16" font-weight="500" fill="#557163" text-anchor="middle">human gated actions</text><line x1="1570" y1="948" x2="1587" y2="948" stroke="#20A657" stroke-width="3" marker-end="url(#arrow)"/><rect x="1590" y="882" width="170" height="132" rx="14" fill="#FFFFFF" stroke="#56BF78" stroke-width="2"/><circle cx="1618" cy="912" r="19" fill="#20A657"/><text x="1618" y="920" font-family="Arial" font-size="18" font-weight="800" fill="#FFFFFF" text-anchor="middle">7</text><text x="1645" y="920" font-family="Arial" font-size="20" font-weight="700" fill="#123B25" text-anchor="start">Infer</text><text x="1675" y="969" font-family="Arial" font-size="16" font-weight="500" fill="#557163" text-anchor="middle">attribute + predict</text><line x1="1761" y1="948" x2="1778" y2="948" stroke="#20A657" stroke-width="3" marker-end="url(#arrow)"/><rect x="1781" y="882" width="170" height="132" rx="14" fill="#FFFFFF" stroke="#56BF78" stroke-width="2"/><circle cx="1809" cy="912" r="19" fill="#20A657"/><text x="1809" y="920" font-family="Arial" font-size="18" font-weight="800" fill="#FFFFFF" text-anchor="middle">8</text><text x="1836" y="920" font-family="Arial" font-size="20" font-weight="700" fill="#123B25" text-anchor="start">Views</text><text x="1866" y="969" font-family="Arial" font-size="16" font-weight="500" fill="#557163" text-anchor="middle">screen JSON + MTTD</text><rect x="422" y="1068" width="154" height="54" rx="27" fill="#E0712F"/><text x="444" y="1103" font-family="Arial" font-size="22" font-weight="700" fill="#FFFFFF" text-anchor="start">04</text><text x="594" y="1103" font-family="Arial" font-size="19" font-weight="600" fill="#52677A" text-anchor="start">INTELLIGENCE, GRAPH AND STATE</text><rect x="422" y="1126" width="370" height="176" rx="16" fill="#FFF8F3" stroke="#E0712F" stroke-width="2.5"/><rect x="422" y="1126" width="370" height="10" rx="5" fill="#E0712F" stroke="none"/><text x="442" y="1168" font-family="Arial" font-size="21" font-weight="700" fill="#102A43" text-anchor="start">Detection engine</text><text x="442" y="1198" font-family="Arial" font-size="17" font-weight="400" fill="#52677A" text-anchor="start"><tspan x="442" dy="0">Autoencoder, benign trained</tspan><tspan x="442" dy="20.74">7 behavioral features</tspan><tspan x="442" dy="20.74">LANL ROC AUC 0.992</tspan><tspan x="442" dy="20.74">TPR 87.7 pct at 1 pct FPR</tspan></text><rect x="812" y="1126" width="370" height="176" rx="16" fill="#FFF8F3" stroke="#E0712F" stroke-width="2.5"/><rect x="812" y="1126" width="370" height="10" rx="5" fill="#E0712F" stroke="none"/><text x="832" y="1168" font-family="Arial" font-size="21" font-weight="700" fill="#102A43" text-anchor="start">Prediction and attribution</text><text x="832" y="1198" font-family="Arial" font-size="17" font-weight="400" fill="#52677A" text-anchor="start"><tspan x="832" dy="0">MiniLM embeddings, precomputed</tspan><tspan x="832" dy="20.74">Interpolated Markov next technique</tspan><tspan x="832" dy="20.74">5.4x kill chain baseline</tspan><tspan x="832" dy="20.74">transparent actor ranking</tspan></text><rect x="1202" y="1126" width="370" height="176" rx="16" fill="#F8F4FF" stroke="#7657D5" stroke-width="2.5"/><rect x="1202" y="1126" width="370" height="10" rx="5" fill="#7657D5" stroke="none"/><text x="1222" y="1168" font-family="Arial" font-size="21" font-weight="700" fill="#102A43" text-anchor="start">Attack graph and CTI</text><text x="1222" y="1198" font-family="Arial" font-size="17" font-weight="400" fill="#52677A" text-anchor="start"><tspan x="1222" dy="0">NetworkX graph analytics</tspan><tspan x="1222" dy="20.74">all pivots and crown jewels</tspan><tspan x="1222" dy="20.74">external relevance bridge</tspan><tspan x="1222" dy="20.74">gated sector alerts</tspan></text><rect x="1592" y="1126" width="396" height="176" rx="16" fill="#FFFBEE" stroke="#D88916" stroke-width="2.5"/><rect x="1592" y="1126" width="396" height="10" rx="5" fill="#D88916" stroke="none"/><text x="1612" y="1168" font-family="Arial" font-size="21" font-weight="700" fill="#102A43" text-anchor="start">Persisted runtime artifacts</text><text x="1612" y="1198" font-family="Arial" font-size="17" font-weight="400" fill="#52677A" text-anchor="start"><tspan x="1612" dy="0">autoencoder and Markov models</tspan><tspan x="1612" dy="20.74">ATT&amp;CK lookups and embeddings</tspan><tspan x="1612" dy="20.74">scenario CSV and cache JSON</tspan><tspan x="1612" dy="20.74">canonical metrics.json</tspan></text><rect x="2068" y="250" width="412" height="184" rx="16" fill="#FFFFFF" stroke="#2586C4" stroke-width="2.5"/><rect x="2068" y="250" width="412" height="10" rx="5" fill="#2586C4" stroke="none"/><text x="2088" y="292" font-family="Arial" font-size="22" font-weight="700" fill="#102A43" text-anchor="start">Command center</text><text x="2088" y="322" font-family="Arial" font-size="18" font-weight="400" fill="#52677A" text-anchor="start"><tspan x="2088" dy="0">Analyze and Overview</tspan><tspan x="2088" dy="21.96">Attackers and Incident</tspan><tspan x="2088" dy="21.96">Graph and Threat Intel</tspan><tspan x="2088" dy="21.96">Radar, Metrics, Methodology</tspan></text><rect x="2068" y="458" width="412" height="180" rx="16" fill="#FFFFFF" stroke="#20A657" stroke-width="2.5"/><rect x="2068" y="458" width="412" height="10" rx="5" fill="#20A657" stroke="none"/><text x="2088" y="500" font-family="Arial" font-size="22" font-weight="700" fill="#102A43" text-anchor="start">Incident intelligence</text><text x="2088" y="530" font-family="Arial" font-size="18" font-weight="400" fill="#52677A" text-anchor="start"><tspan x="2088" dy="0">one correlated campaign</tspan><tspan x="2088" dy="21.96">per account investigation</tspan><tspan x="2088" dy="21.96">ATT&amp;CK mapped evidence</tspan><tspan x="2088" dy="21.96">ranked actor attribution</tspan></text><rect x="2068" y="662" width="412" height="180" rx="16" fill="#FFFFFF" stroke="#7657D5" stroke-width="2.5"/><rect x="2068" y="662" width="412" height="10" rx="5" fill="#7657D5" stroke="none"/><text x="2088" y="704" font-family="Arial" font-size="22" font-weight="700" fill="#102A43" text-anchor="start">Graph decisions</text><text x="2088" y="734" font-family="Arial" font-size="18" font-weight="400" fill="#52677A" text-anchor="start"><tspan x="2088" dy="0">attack path and pivots</tspan><tspan x="2088" dy="21.96">blast radius and exposure</tspan><tspan x="2088" dy="21.96">critical asset reachability</tspan><tspan x="2088" dy="21.96">next technique forecast</tspan></text><rect x="2068" y="866" width="412" height="258" rx="16" fill="#FFFFFF" stroke="#E0712F" stroke-width="2.5"/><rect x="2068" y="866" width="412" height="10" rx="5" fill="#E0712F" stroke="none"/><text x="2088" y="908" font-family="Arial" font-size="22" font-weight="700" fill="#102A43" text-anchor="start">Response and evidence</text><text x="2088" y="938" font-family="Arial" font-size="18" font-weight="400" fill="#52677A" text-anchor="start"><tspan x="2088" dy="0">human gated SOAR actions</tspan><tspan x="2088" dy="21.96">audit ready incident report</tspan><tspan x="2088" dy="21.96">live CTI relevance</tspan><tspan x="2088" dy="21.96">computed MTTD</tspan><tspan x="2088" dy="21.96">drift proof metrics</tspan><tspan x="2088" dy="21.96">LIVE or SAMPLE provenance</tspan></text><line x1="344" y1="332" x2="446" y2="390" stroke="#2586C4" stroke-width="4" marker-end="url(#arrow)"/><line x1="796" y1="468" x2="796" y2="594" stroke="#2586C4" stroke-width="4" marker-end="url(#arrow)"/><line x1="796" y1="738" x2="796" y2="850" stroke="#2586C4" stroke-width="4" marker-end="url(#arrow)"/><line x1="1988" y1="948" x2="2068" y2="950" stroke="#2586C4" stroke-width="4" marker-end="url(#arrow)"/><line x1="344" y1="530" x2="446" y2="650" stroke="#2586C4" stroke-width="4" marker-end="url(#arrow)"/><line x1="344" y1="730" x2="446" y2="666" stroke="#2586C4" stroke-width="4" marker-end="url(#arrow)"/><rect x="54" y="1322" width="2452" height="84" rx="18" fill="#DDF3FB" stroke="#1581AF" stroke-width="3"/><rect x="76" y="1340" width="180" height="48" rx="24" fill="#137BA7"/><text x="166" y="1372" font-family="Arial" font-size="20" font-weight="800" fill="#FFFFFF" text-anchor="middle">DEPLOYMENT</text><text x="282" y="1358" font-family="Arial" font-size="20" font-weight="700" fill="#173B53" text-anchor="start">Two stage Docker build | React bundle plus Python 3.10 runtime | Render blueprint | one URL</text><text x="282" y="1386" font-family="Arial" font-size="18" font-weight="500" fill="#42647A" text-anchor="start">Slim serving dependencies | models loaded once | no Torch at runtime | health check /api/health</text><text x="2425" y="1361" font-family="Arial" font-size="18" font-weight="800" fill="#66788A" text-anchor="end">OFFLINE BUILD</text><text x="2425" y="1387" font-family="Arial" font-size="17" font-weight="500" fill="#66788A" text-anchor="end">11 GB datasets -&gt; training -&gt; artifacts -&gt; cache</text><line x1="1770" y1="1124" x2="1770" y2="1028" stroke="#D88916" stroke-width="3" stroke-dasharray="12 10" marker-end="url(#arrow)"/><line x1="2320" y1="1320" x2="1850" y2="1302" stroke="#66788A" stroke-width="3" stroke-dasharray="12 10" marker-end="url(#arrow)"/></svg>